<svg xmlns="http://www.w3.org/2000/svg" viewBox="0 0 380 60" width="380" height="60" role="img" aria-label="unclaimed">
  <defs>
    <pattern id="shade" width="5" height="5" patternUnits="userSpaceOnUse">
      <rect width="2.5" height="2.5" fill="#1f2328"/>
      <rect x="2.5" y="2.5" width="2.5" height="2.5" fill="#1f2328"/>
    </pattern>
  </defs>
  <path fill="#1f2328" d="M20 0h10v20H20zM40 0h10v20H40zM50 10h10v10H50zM90 0h10v20H90zM100 0h10v10H100zM110 0h10v10H110zM170 0h10v20H170zM180 0h10v10H180zM190 0h10v20H190zM210 0h10v10H210zM220 0h10v20H220zM230 0h10v10H230zM250 0h10v20H250zM260 10h10v10H260zM280 10h10v10H280zM310 0h10v20H310zM320 0h10v10H320zM330 0h10v10H330zM360 0h10v10H360zM370 10h10v10H370zM0 20h10v20H0zM20 20h10v20H20zM40 20h10v20H40zM60 20h10v10H60zM70 20h10v20H70zM130 20h10v20H130zM180 20h10v10H180zM190 20h10v20H190zM250 20h10v20H250zM270 20h10v10H270zM290 20h10v20H290zM320 20h10v10H320zM350 20h10v20H350zM370 20h10v20H370zM0 40h10v10H0zM10 40h10v10H10zM20 40h10v10H20zM40 40h10v10H40zM70 40h10v10H70zM90 40h10v10H90zM100 40h10v10H100zM110 40h10v10H110zM130 40h10v10H130zM140 40h10v10H140zM150 40h10v10H150zM170 40h10v10H170zM190 40h10v10H190zM210 40h10v10H210zM220 40h10v10H220zM230 40h10v10H230zM250 40h10v10H250zM290 40h10v10H290zM310 40h10v10H310zM320 40h10v10H320zM330 40h10v10H330zM350 40h10v10H350zM360 40h10v10H360z"/>
  <path fill="url(#shade)" d="M0 0h10v20H0zM70 0h10v20H70zM130 0h10v20H130zM290 0h10v20H290zM350 0h10v20H350zM90 20h10v20H90zM170 20h10v20H170zM220 20h10v20H220zM310 20h10v20H310z"/>
</svg>
